<svg width="60" height="32" viewBox="0 0 60 32" fill="none" xmlns="http://www.w3.org/2000/svg">
<g clip-path="url(#clip0)">
<path d="M16.0446 9.32065C15.5289 9.92864 14.7039 10.4082 13.8789 10.3397C13.7758 9.5176 14.1797 8.64415 14.6524 8.10466C15.168 7.47954 16.0703 7.03425 16.8008 7C16.8868 7.85633 16.5516 8.69553 16.0446 9.32065ZM16.7922 10.5024C15.5977 10.4339 14.575 11.1789 14.0078 11.1789C13.4321 11.1789 12.5641 10.5366 11.6188 10.5538C10.3899 10.5709 9.24691 11.2645 8.61957 12.3692C7.33051 14.5785 8.28441 17.8497 9.53051 19.648C10.1407 20.5385 10.8711 21.5147 11.8336 21.4805C12.7446 21.4462 13.1055 20.8896 14.2055 20.8896C15.3141 20.8896 15.6321 21.4805 16.5946 21.4634C17.5914 21.4462 18.2188 20.5728 18.8289 19.6822C19.525 18.6717 19.8086 17.687 19.8258 17.6356C19.8086 17.6185 17.9008 16.8906 17.8836 14.6984C17.8664 12.8658 19.3875 11.9924 19.4563 11.941C18.5969 10.6736 17.2563 10.5366 16.7922 10.5024ZM23.693 8.01903V21.3692H25.7727V16.8049H28.6516C31.2813 16.8049 33.1289 15.0067 33.1289 12.4034C33.1289 9.80019 31.3157 8.01903 28.7203 8.01903H23.693ZM25.7727 9.76594H28.1703C29.975 9.76594 31.0063 10.725 31.0063 12.412C31.0063 14.099 29.975 15.0666 28.1618 15.0666H25.7727V9.76594ZM36.9274 21.4719C38.2336 21.4719 39.4453 20.8126 39.9953 19.7678H40.0383V21.3692H41.9633V14.7241C41.9633 12.7973 40.4164 11.5557 38.036 11.5557C35.8274 11.5557 34.1946 12.8145 34.1344 14.5442H36.0078C36.1625 13.7222 36.9274 13.1827 37.9758 13.1827C39.2477 13.1827 39.961 13.7735 39.961 14.8611V15.5975L37.3657 15.7517C34.9508 15.8972 33.6446 16.882 33.6446 18.5947C33.6446 20.3245 34.9938 21.4719 36.9274 21.4719ZM37.486 19.8877C36.3774 19.8877 35.6727 19.3568 35.6727 18.5433C35.6727 17.7041 36.3516 17.216 37.6493 17.1389L39.961 16.9933V17.7469C39.961 18.9971 38.8953 19.8877 37.486 19.8877ZM44.5328 25C46.561 25 47.5149 24.2293 48.3485 21.8915L52.0008 11.6841H49.8868L47.4375 19.5709H47.3946L44.9453 11.6841H42.7711L46.2946 21.4034L46.1055 21.9943C45.7875 22.9962 45.2719 23.3815 44.3524 23.3815C44.1891 23.3815 43.8711 23.3644 43.7422 23.3473V24.9486C43.8625 24.9829 44.3782 25 44.5328 25Z" fill="white"/>
</g>
<defs>
<clipPath id="clip0">
<rect width="44" height="18" fill="white" transform="translate(8 7)"/>
</clipPath>
</defs>
</svg>
