<?xml version="1.0" encoding="utf-8"?>
<!-- Generator: Adobe Illustrator 19.0.1, SVG Export Plug-In . SVG Version: 6.00 Build 0)  -->
<svg version="1.1" baseProfile="tiny" id="Слой_1"
	 xmlns="http://www.w3.org/2000/svg" xmlns:xlink="http://www.w3.org/1999/xlink" x="0px" y="0px" width="24px" height="24px"
	 viewBox="-285 408.9 24 24" xml:space="preserve">
<title>ic_viber_24_px</title>
<desc>Created using Figma</desc>
<rect x="-285" y="408.9" fill="none" width="24" height="24"/>
<path id="path0_fill" fill="#7C529D" d="M-273,432.9c6.6,0,12-5.4,12-12c0-6.6-5.4-12-12-12s-12,5.4-12,12
	C-285,427.5-279.6,432.9-273,432.9z"/>
<path id="path1_fill" fill="#FFFFFF" d="M-266.2,417.8c-0.4-1.4-1.9-2.8-3.2-3.1c-2.2-0.4-4.5-0.4-6.7,0c-1.4,0.3-2.9,1.7-3.2,3.1
	c-0.4,1.9-0.4,3.8,0,5.7c0.3,1.3,1.7,2.7,3.1,3.1v1.5c0,0.5,0.7,0.8,1,0.4l1.5-1.6c0.4,0,0.7,0,1,0c1.1,0,2.2-0.1,3.4-0.3
	c1.4-0.3,2.9-1.7,3.2-3.1C-265.8,421.6-265.8,419.7-266.2,417.8z M-267.4,423.2c-0.2,0.9-1.4,2-2.3,2.2c-1.2,0.2-2.4,0.3-3.6,0.3
	h-0.1c-0.2,0.2-1.1,1.1-1.1,1.1l-1.2,1.2c-0.1,0.1-0.2,0-0.2-0.1v-2.5c0-0.1,0-0.1-0.1-0.1c-0.9-0.2-2-1.3-2.3-2.2
	c-0.4-1.7-0.4-3.5,0-5.2c0.2-0.9,1.4-2,2.3-2.2c2.1-0.4,4.2-0.4,6.2,0c0.9,0.2,2,1.3,2.3,2.2C-267.1,419.7-267.1,421.5-267.4,423.2z
	 M-270.4,422.3c-0.2-0.1-0.4-0.3-0.6-0.4s-0.5-0.1-0.7,0c-0.2,0.2-0.3,0.5-0.6,0.5c-0.2,0-0.3-0.1-0.5-0.1c-0.9-0.4-1.5-1.1-1.8-2
	c-0.1-0.1-0.1-0.2,0-0.4c0.1-0.1,0.1-0.1,0.1-0.1c0.1-0.1,0.1-0.1,0.2-0.1c0.2-0.2,0.3-0.5,0.2-0.8c-0.2-0.4-0.5-0.8-0.8-1.2
	c-0.2-0.2-0.4-0.2-0.5-0.1c-0.2,0.1-0.5,0.3-0.7,0.5c-0.2,0.2-0.4,0.6-0.2,0.9c0.1,0.4,0.3,0.7,0.4,1c0.4,0.7,0.8,1.4,1.3,2
	c1,1.1,2.1,1.7,3.4,2.3c0.1,0.1,0.2,0.1,0.4,0.1c0.1-0.1,0.2-0.1,0.4-0.1c0.4-0.2,0.7-0.5,0.8-0.9c0.1-0.2,0.1-0.4-0.1-0.6
	C-270,422.6-270.2,422.4-270.4,422.3z M-272.8,417C-272.9,417-271.2,417.1-272.8,417L-272.8,417z M-272.8,417c-0.1,0-0.1,0-0.1,0
	c-0.1,0-0.2,0.1-0.2,0.2c0,0.1,0.2,0.2,0.3,0.2c0.2,0,0.4,0,0.5,0.1c1.3,0.2,2.2,1.3,2.4,2.5c0.1,0.2,0.1,0.5,0.1,0.7
	c0,0.1,0.1,0.2,0.2,0.2s0.2-0.1,0.2-0.2c0-0.3-0.1-0.6-0.1-0.8C-269.8,418.2-271.2,417.1-272.8,417z M-270.7,420.3
	c0,0.1,0,0.1,0,0.2c0.1,0.2,0.3,0.1,0.4,0c0-0.1,0-0.1,0-0.1c0-0.1,0-0.2,0-0.3c0-0.1,0-0.1,0-0.1c-0.1-0.8-0.5-1.4-1.2-1.7
	c-0.4-0.2-0.7-0.2-1.1-0.3c-0.1,0-0.2,0.1-0.2,0.2s0.1,0.2,0.2,0.2s0.2,0,0.3,0.1c0.2,0.1,0.4,0.1,0.7,0.2c0.3,0.2,0.6,0.4,0.8,0.8
	C-270.8,419.6-270.7,420-270.7,420.3z M-271.3,420.3c0.1,0,0.1-0.1,0.1-0.1s0-0.1,0-0.2c-0.1-0.8-0.5-1.1-1.2-1.1
	c-0.1,0-0.2,0.1-0.2,0.2c0,0.1,0.1,0.2,0.2,0.2c0.1,0,0.2,0,0.3,0.1c0.1,0,0.2,0.1,0.2,0.1c0.1,0.1,0.2,0.2,0.3,0.4
	c0,0.1,0,0.2,0.1,0.2C-271.6,420.3-271.5,420.3-271.3,420.3C-271.4,420.3-271.5,420.3-271.3,420.3z"/>
</svg>
