<?xml version="1.0" encoding="utf-8"?>
<!-- Generator: Adobe Illustrator 19.0.1, SVG Export Plug-In . SVG Version: 6.00 Build 0)  -->
<svg version="1.1" baseProfile="tiny" id="Слой_1"
	 xmlns="http://www.w3.org/2000/svg" xmlns:xlink="http://www.w3.org/1999/xlink" x="0px" y="0px" width="24px" height="24px"
	 viewBox="-285 408.9 24 24" xml:space="preserve">
<title>ic_telegram_24_px</title>
<desc>Created using Figma</desc>
<rect x="-285" y="408.9" fill="none" width="24" height="24"/>
<path id="path0_fill" fill="#2CA5E0" d="M-273,432.9c6.6,0,12-5.4,12-12c0-6.6-5.4-12-12-12s-12,5.4-12,12
	C-285,427.5-279.6,432.9-273,432.9z"/>
<path id="path1_fill" fill="#FFFFFF" d="M-267.7,416.8c0,0.3-0.1,0.7-0.2,1c-0.6,2.8-1.1,5.6-1.7,8.4c-0.1,0.2-0.1,0.3-0.2,0.5
	c-0.1,0.2-0.4,0.3-0.6,0.2c-0.2-0.1-0.3-0.1-0.4-0.2c-0.9-0.7-1.7-1.3-2.6-2c-0.1-0.1-0.2-0.1-0.2,0c-0.4,0.4-0.8,0.8-1.3,1.3
	c-0.2,0.2-0.4,0.2-0.6,0.2c-0.2,0-0.2-0.1-0.3-0.2c-0.2-0.8-0.5-1.7-0.8-2.6c-0.1-0.3-0.2-0.6-0.3-0.9c-0.1-0.1-0.1-0.2-0.2-0.2
	c-0.8-0.2-1.7-0.5-2.6-0.8c-0.1-0.1-0.2-0.1-0.3-0.1c-0.2-0.2-0.2-0.4-0.1-0.5c0.1-0.1,0.3-0.2,0.5-0.3c1.1-0.5,2.3-0.9,3.5-1.4
	c2.5-1,5-2,7.6-3h0.1C-268.1,416-267.7,416.2-267.7,416.8z M-275.6,425.4C-275.5,425.4-275.5,425.4-275.6,425.4
	c0.1-0.7,0.2-1.3,0.2-1.9c0-0.2,0.1-0.3,0.2-0.4c1.6-1.5,3.3-3,4.9-4.6c0.1-0.1,0.2-0.2,0.3-0.3c0.1-0.1,0.1-0.1,0.1-0.2
	c-0.1-0.1-0.1-0.1-0.2-0.1c-0.1,0-0.2,0.1-0.4,0.1c-2,1.3-4,2.6-6.1,3.9c-0.1,0.1-0.1,0.1-0.1,0.2c0.2,0.8,0.5,1.6,0.7,2.3
	C-275.8,424.9-275.7,425.2-275.6,425.4z"/>
</svg>
