<svg width="60" height="32" viewBox="0 0 60 32" fill="none" xmlns="http://www.w3.org/2000/svg">
<g clip-path="url(#clip0)">
<path d="M28.8104 15.5492V20.679H27.1855V8.01062H31.495C32.0094 7.99986 32.5209 8.09123 32.9998 8.27946C33.4788 8.4677 33.9158 8.74907 34.2856 9.10734C34.6591 9.44385 34.9564 9.85655 35.1575 10.3177C35.3585 10.7789 35.4587 11.2778 35.4513 11.7809C35.462 12.2867 35.3633 12.7889 35.1621 13.253C34.9609 13.7171 34.6619 14.1321 34.2856 14.4696C33.532 15.1893 32.6018 15.5488 31.495 15.5482H28.8104V15.5492ZM28.8104 9.57028V13.9925H31.5354C31.8341 14.0014 32.1314 13.9477 32.4083 13.8349C32.6851 13.7222 32.9354 13.5527 33.1431 13.3375C33.3498 13.1363 33.514 12.8957 33.6262 12.6298C33.7383 12.3639 33.7961 12.0781 33.7961 11.7895C33.7961 11.5008 33.7383 11.2151 33.6262 10.9492C33.514 10.6833 33.3498 10.4427 33.1431 10.2415C32.938 10.0217 32.6886 9.84815 32.4114 9.73226C32.1342 9.61638 31.8356 9.56082 31.5354 9.56927H28.8104V9.57028Z" fill="white"/>
<path d="M39.1961 11.7285C40.3971 11.7285 41.3451 12.05 42.0401 12.6928C42.7352 13.3357 43.0823 14.2171 43.0817 15.3371V20.6792H41.5274V19.4763H41.4568C40.784 20.4669 39.8891 20.9622 38.7722 20.9622C37.8188 20.9622 37.0212 20.6792 36.3793 20.1131C36.0712 19.8533 35.825 19.5279 35.6584 19.1607C35.4918 18.7935 35.4092 18.3937 35.4165 17.9904C35.4165 17.0935 35.7549 16.3802 36.4318 15.8506C37.1086 15.3209 38.0122 15.0554 39.1426 15.0541C40.1074 15.0541 40.902 15.2309 41.5264 15.5847V15.2127C41.5283 14.9378 41.469 14.6659 41.3529 14.4168C41.2368 14.1677 41.0668 13.9475 40.8553 13.7724C40.4256 13.3841 39.8656 13.1722 39.2869 13.179C38.3793 13.179 37.661 13.5624 37.1322 14.3293L35.7011 13.4267C36.4883 12.2946 37.6533 11.7285 39.1961 11.7285ZM37.0938 18.0258C37.0927 18.2329 37.1411 18.4373 37.2348 18.6219C37.3286 18.8065 37.465 18.966 37.6328 19.0871C37.9921 19.3703 38.4382 19.5203 38.8953 19.5117C39.581 19.5105 40.2383 19.2372 40.7231 18.7516C41.2613 18.2441 41.5305 17.6488 41.5305 16.9655C41.0238 16.5612 40.3173 16.359 39.411 16.359C38.751 16.359 38.2006 16.5184 37.7599 16.8371C37.3148 17.1606 37.0938 17.5538 37.0938 18.0258Z" fill="white"/>
<path d="M52.003 12.0117L46.5773 24.5002H44.8999L46.9134 20.1305L43.3457 12.0117H45.1119L47.6905 18.2383H47.7258L50.2338 12.0117H52.003Z" fill="white"/>
<path d="M22.2435 14.4427C22.2441 13.9468 22.2023 13.4517 22.1184 12.9629H15.2656V15.7658H19.1906C19.1103 16.2135 18.9403 16.6403 18.6908 17.0204C18.4414 17.4005 18.1177 17.726 17.7393 17.9775V19.7969H20.0817C21.4533 18.5304 22.2435 16.6574 22.2435 14.4427Z" fill="white"/>
<path d="M15.2659 21.5548C17.2269 21.5548 18.878 20.9099 20.082 19.798L17.7396 17.9786C17.0876 18.4213 16.2479 18.674 15.2659 18.674C13.3705 18.674 11.7618 17.3943 11.1865 15.6699H8.77344V17.545C9.37824 18.7503 10.3056 19.7636 11.4521 20.4717C12.5986 21.1797 13.919 21.5547 15.2659 21.5548Z" fill="white"/>
<path d="M11.1869 15.6706C10.8827 14.767 10.8827 13.7884 11.1869 12.8848V11.0098H8.77376C8.26497 12.0238 8 13.1429 8 14.2777C8 15.4125 8.26497 16.5316 8.77376 17.5456L11.1869 15.6706Z" fill="white"/>
<path d="M15.2659 9.88126C16.3022 9.86431 17.3035 10.2564 18.0534 10.9729L20.1274 8.89573C18.8123 7.65859 17.07 6.97937 15.2659 7.00048C13.919 7.00054 12.5986 7.37554 11.4521 8.08361C10.3056 8.79169 9.37824 9.80497 8.77344 11.0103L11.1865 12.8854C11.7618 11.1609 13.3705 9.88126 15.2659 9.88126Z" fill="white"/>
</g>
<defs>
<clipPath id="clip0">
<rect width="44" height="17.5" fill="white" transform="translate(8 7)"/>
</clipPath>
</defs>
</svg>
