<svg width="73" height="32" viewBox="0 0 73 32" fill="none" xmlns="http://www.w3.org/2000/svg">
<path d="M28.8636 22.6285C28.8636 22.8378 28.8636 23.0471 28.7955 23.2564C28.6591 23.5355 28.4545 23.8146 28.1818 23.8843C27.8409 23.9541 27.5682 23.9541 27.2273 23.8843C27.0909 23.8146 26.9545 23.7448 26.8182 23.675C26.6818 23.5355 26.6136 23.396 26.5455 23.2564C26.4773 23.0471 26.4773 22.8378 26.4773 22.6285V19.8378H25.3864V22.6983C25.3864 23.0471 25.4545 23.396 25.5909 23.7448C25.7273 24.0239 25.8636 24.2332 26.0682 24.4425C26.2727 24.6518 26.5455 24.7913 26.8182 24.8611C27.3636 25.0006 27.9773 25.0006 28.5227 24.8611C28.7955 24.7913 29.0682 24.6518 29.2727 24.4425C29.4773 24.2332 29.6818 24.0239 29.75 23.7448C29.8864 23.396 29.9545 23.0471 29.9545 22.6983V19.8378H28.8636V22.6285ZM33.8409 19.6983C33.5682 19.6983 33.2955 19.768 33.0227 19.8378C32.75 19.9773 32.5455 20.1169 32.4091 20.3959V19.8378H31.3182V24.7913H32.4091V22.0704C32.4091 21.8611 32.4091 21.7215 32.4773 21.5122C32.5455 21.3727 32.6136 21.2332 32.6818 21.0936C32.8182 20.9541 32.8864 20.8843 33.0227 20.8145C33.1591 20.7448 33.3636 20.7448 33.5 20.7448C33.6364 20.7448 33.7727 20.7448 33.9091 20.8145C34.0455 20.8145 34.1818 20.8843 34.3182 20.9541L34.5909 19.9076C34.4545 19.8378 34.3182 19.8378 34.1818 19.768C34.1136 19.6983 33.9773 19.6983 33.8409 19.6983ZM36.0909 21.8611C36.0909 21.7215 36.1591 21.5122 36.2273 21.3727C36.2955 21.2332 36.3636 21.0936 36.5 20.9541C36.6364 20.8146 36.7727 20.7448 36.9091 20.675C37.0455 20.6052 37.25 20.6052 37.3864 20.6052C37.7273 20.6052 38 20.675 38.2045 20.9541C38.4091 21.2332 38.5455 21.5122 38.6136 21.8611H36.0909ZM39.0909 20.3959C38.8864 20.1866 38.6136 19.9773 38.3409 19.8378C38.0682 19.6983 37.7273 19.6285 37.3864 19.6285C37.0455 19.6285 36.7045 19.6983 36.4318 19.8378C36.1591 19.9773 35.8864 20.1169 35.6818 20.3959C35.4773 20.6052 35.2727 20.8843 35.2045 21.2332C35.0682 21.582 35 21.9308 35 22.2797C35 22.6285 35.0682 22.9773 35.2045 23.3262C35.4091 23.9541 35.8864 24.4425 36.5 24.6518C36.8409 24.7913 37.1818 24.8611 37.5227 24.8611C37.8636 24.8611 38.2727 24.7913 38.6136 24.7215C38.9545 24.582 39.2955 24.4425 39.5682 24.1634L39.0227 23.396C38.8182 23.5355 38.6136 23.675 38.3409 23.8146C38.1364 23.8843 37.8636 23.9541 37.5909 23.9541C37.4545 23.9541 37.25 23.9541 37.1136 23.8843C36.9773 23.8146 36.8409 23.7448 36.7045 23.675C36.5682 23.5355 36.4318 23.396 36.3636 23.2564C36.2955 23.0471 36.2273 22.9076 36.1591 22.6983H39.8409V22.2797C39.8409 21.9308 39.7727 21.582 39.6364 21.2332C39.5 20.9541 39.2955 20.675 39.0909 20.3959ZM13.0455 21.1634C12.8409 21.0239 12.5682 20.8843 12.2955 20.8145C12.0227 20.7448 11.75 20.675 11.4773 20.6052L11 20.5355C10.7955 20.5355 10.5909 20.4657 10.3864 20.3959C10.25 20.3262 10.0455 20.3262 9.90909 20.1866C9.77273 20.1169 9.70455 20.0471 9.63636 19.9076C9.56818 19.768 9.5 19.6285 9.5 19.489C9.5 19.3494 9.56818 19.1401 9.63636 19.0704C9.70455 18.9308 9.84091 18.7913 9.97727 18.7215C10.1136 18.6518 10.3182 18.5122 10.4545 18.5122C10.6591 18.4425 10.8636 18.4425 11.1364 18.4425C11.4773 18.4425 11.8182 18.5122 12.1591 18.582C12.5 18.7215 12.8409 18.8611 13.1136 19.0704L13.6591 18.1634C13.3182 17.9541 12.9091 17.7448 12.5 17.6052C12.0227 17.4657 11.5455 17.3959 11.0682 17.3959C10.7273 17.3959 10.3182 17.4657 9.97727 17.5355C9.63636 17.6052 9.36364 17.7448 9.09091 17.9541C8.81818 18.1634 8.61364 18.3727 8.47727 18.6518C8.34091 18.9308 8.27273 19.2797 8.27273 19.6285C8.27273 19.9076 8.34091 20.2564 8.47727 20.4657C8.54545 20.7448 8.68182 20.9541 8.88636 21.0936C9.09091 21.2332 9.29545 21.3727 9.56818 21.4425C9.84091 21.582 10.1136 21.6518 10.3864 21.6518L10.9318 21.7215C11.3409 21.7913 11.75 21.8611 12.1591 22.0704C12.4318 22.2099 12.5682 22.4192 12.5682 22.6983C12.5682 22.8378 12.5 23.0471 12.4318 23.1866C12.3636 23.3262 12.2273 23.4657 12.0909 23.5355C11.9545 23.6053 11.75 23.675 11.5455 23.7448C11.3409 23.8146 11.1364 23.8146 10.8636 23.8146C10.6591 23.8146 10.4545 23.8146 10.25 23.7448C9.84091 23.675 9.43182 23.5355 9.09091 23.3262C8.95455 23.2564 8.75 23.1169 8.68182 22.9773L8 23.9541C8.20455 24.0936 8.40909 24.2332 8.61364 24.3727C8.81818 24.5122 9.09091 24.582 9.29545 24.6518C9.56818 24.7215 9.84091 24.7913 10.1136 24.8611C10.3864 24.9308 10.5909 24.9308 10.8636 24.9308C11.2045 24.9308 11.6136 24.8611 11.9545 24.7913C12.2955 24.7215 12.5682 24.582 12.8409 24.3727C13.1136 24.1634 13.3182 23.9541 13.4545 23.675C13.5909 23.396 13.6591 23.0471 13.6591 22.6983C13.6591 22.4192 13.5909 22.1401 13.4545 21.8611C13.3864 21.5122 13.25 21.3727 13.0455 21.1634ZM15.6364 21.8611C15.6364 21.7215 15.7045 21.5122 15.7727 21.3727C15.8409 21.2332 15.9091 21.0936 16.0455 20.9541C16.1818 20.8146 16.3182 20.7448 16.4545 20.675C16.5909 20.6052 16.7955 20.6052 16.9318 20.6052C17.2727 20.6052 17.5455 20.7448 17.75 20.9541C17.9545 21.2332 18.0909 21.5122 18.1591 21.8611H15.6364ZM18.6364 20.3959C18.4318 20.1866 18.1591 19.9773 17.8864 19.8378C17.6136 19.6983 17.2727 19.6285 16.9318 19.6285C16.5909 19.6285 16.25 19.6983 15.9773 19.8378C15.7045 19.9773 15.4318 20.1169 15.2273 20.3959C15.0227 20.6052 14.8182 20.8843 14.75 21.2332C14.6136 21.582 14.5455 21.9308 14.5455 22.2797C14.5455 22.6285 14.6136 22.9773 14.75 23.3262C14.9545 23.9541 15.4318 24.4425 16.0455 24.6518C16.3864 24.7913 16.7273 24.8611 17.0682 24.8611C17.4091 24.8611 17.8182 24.7913 18.1591 24.7215C18.5 24.582 18.8409 24.4425 19.1136 24.1634L18.5682 23.396C18.3636 23.5355 18.1591 23.675 17.8864 23.8146C17.6818 23.8843 17.4091 23.9541 17.1364 23.9541C17 23.9541 16.7955 23.9541 16.6591 23.8843C16.5227 23.8146 16.3864 23.7448 16.25 23.675C16.1136 23.5355 15.9773 23.396 15.9091 23.2564C15.8409 23.0471 15.7727 22.9076 15.7045 22.6983H19.3182V22.2797C19.3182 21.9308 19.25 21.582 19.1136 21.2332C18.9773 20.9541 18.8409 20.675 18.6364 20.3959ZM23.2727 23.7448C22.8636 23.9541 22.4545 23.9541 22.0455 23.8146C21.8409 23.7448 21.7045 23.6053 21.5682 23.4657C21.4318 23.3262 21.3636 23.1169 21.2955 22.9773C21.1591 22.5587 21.1591 22.0704 21.2955 21.6518C21.3636 21.4425 21.5 21.3029 21.5682 21.1634C21.7045 21.0239 21.8409 20.8843 22.0455 20.8145C22.25 20.7448 22.3864 20.675 22.5909 20.675C22.7955 20.675 23 20.7448 23.2045 20.8145C23.4091 20.8843 23.6136 21.0239 23.75 21.2332L24.4318 20.4657C24.2273 20.1866 23.9545 19.9773 23.6818 19.9076C23.3409 19.768 23 19.6983 22.6591 19.6983C22.3182 19.6983 21.9091 19.768 21.5682 19.9076C20.9545 20.1866 20.4773 20.675 20.2727 21.3029C20 22.0006 20 22.6983 20.2727 23.396C20.4773 24.0239 21.0227 24.5122 21.6364 24.7913C21.9773 24.9308 22.3182 25.0006 22.7273 25.0006C23.0682 25.0006 23.4091 24.9308 23.75 24.7913C24.0909 24.6518 24.3636 24.4425 24.5682 24.1634L23.8864 23.396C23.6136 23.5355 23.4773 23.675 23.2727 23.7448ZM57.9773 22.9076C57.9091 23.1169 57.7727 23.2564 57.7045 23.396C57.5682 23.5355 57.4318 23.675 57.2273 23.7448C56.8182 23.8843 56.4091 23.8843 56 23.7448C55.6591 23.6053 55.3864 23.2564 55.25 22.9076C55.1136 22.489 55.1136 22.0704 55.25 21.6518C55.3864 21.3029 55.6591 20.9541 56 20.8145C56.2045 20.7448 56.4091 20.675 56.6136 20.675C56.8182 20.675 57.0227 20.7448 57.2273 20.8145C57.4318 20.8843 57.5682 21.0239 57.7045 21.1634C57.8409 21.3029 57.9091 21.5122 57.9773 21.6518C58.1136 22.0704 58.1136 22.5587 57.9773 22.9076ZM58.0455 20.3959C57.7045 19.9076 57.0909 19.6285 56.4773 19.6983C55.4545 19.6983 54.5682 20.3262 54.2273 21.2332C53.9545 21.9308 53.9545 22.6285 54.2273 23.3262C54.3636 23.6053 54.5 23.9541 54.7727 24.1634C55.25 24.6518 55.8636 24.9308 56.4773 24.9308C56.8182 24.9308 57.0909 24.8611 57.3636 24.7215C57.6364 24.582 57.8409 24.4425 57.9773 24.1634V24.7913H59.1364V17.3262H58.0455V20.3959ZM61.3182 21.8611C61.3182 21.7215 61.3864 21.5122 61.4545 21.3727C61.5227 21.2332 61.5909 21.0936 61.7273 20.9541C61.8636 20.8146 62 20.7448 62.1364 20.675C62.2727 20.6052 62.4773 20.6052 62.6136 20.6052C62.9545 20.6052 63.2273 20.675 63.4318 20.8843C63.6364 21.1634 63.7727 21.4425 63.8409 21.7913H61.3182V21.8611ZM64.3182 20.3959C64.1136 20.1866 63.8409 19.9773 63.5682 19.8378C63.2955 19.6983 62.9545 19.6285 62.6136 19.6285C62.2727 19.6285 62 19.6983 61.6591 19.8378C61.3864 19.9773 61.1136 20.1169 60.9091 20.3959C60.7045 20.6052 60.5 20.8843 60.4318 21.2332C60.2955 21.582 60.2273 21.9308 60.2273 22.2797C60.2273 22.6285 60.2955 22.9773 60.4318 23.3262C60.5682 23.6053 60.7045 23.8843 60.9773 24.1634C61.1818 24.3727 61.4545 24.582 61.7273 24.7215C62.0682 24.8611 62.4091 24.9308 62.75 24.9308C63.0909 24.9308 63.5 24.8611 63.8409 24.7913C64.1818 24.6518 64.5227 24.5122 64.7955 24.2332L64.25 23.4657C64.0455 23.6053 63.8409 23.7448 63.5682 23.8843C63.3636 23.9541 63.0909 24.0239 62.8182 24.0239C62.6818 24.0239 62.4773 24.0239 62.3409 23.9541C62.2045 23.8843 62.0682 23.8146 61.9318 23.7448C61.7955 23.6053 61.6591 23.4657 61.5909 23.3262C61.5227 23.1169 61.4545 22.9773 61.3864 22.768H65V22.3494C65 22.0006 64.9318 21.6518 64.7955 21.3029C64.7273 20.8843 64.5227 20.6052 64.3182 20.3959ZM52.0455 22.9076C51.9091 23.2564 51.5682 23.6053 51.2273 23.7448C50.8182 23.8843 50.4091 23.8843 50 23.7448C49.6591 23.6053 49.3182 23.3262 49.1818 22.9076C49.0455 22.489 49.0455 22.0006 49.1818 21.582C49.25 21.3727 49.3864 21.2332 49.5227 21.0936C49.6591 20.9541 49.7955 20.8146 50 20.7448C50.2045 20.675 50.4091 20.6052 50.6136 20.6052C50.8182 20.6052 51.0227 20.675 51.2273 20.7448C51.4318 20.8146 51.5682 20.9541 51.7045 21.0936C51.8409 21.2332 51.9773 21.4425 52.0455 21.582C52.25 22.0704 52.25 22.489 52.0455 22.9076ZM52.5227 20.3959C52.25 20.1866 51.9773 19.9773 51.7045 19.8378C51.3636 19.6983 51.0227 19.6285 50.6818 19.6285C50.3409 19.6285 49.9318 19.6983 49.5909 19.8378C49.25 19.9773 48.9773 20.1169 48.7727 20.3959C48.5682 20.6052 48.3636 20.8843 48.2273 21.2332C47.9545 21.9308 47.9545 22.6285 48.2273 23.3262C48.3636 23.6053 48.5682 23.8843 48.7727 24.1634C49.0455 24.3727 49.3182 24.582 49.5909 24.7215C50.2727 25.0006 51.0227 25.0006 51.7045 24.7215C52.0455 24.582 52.3182 24.4425 52.5227 24.1634C52.7273 23.9541 52.9318 23.675 53.0682 23.3262C53.3409 22.6285 53.3409 21.9308 53.0682 21.2332C52.9318 20.9541 52.7955 20.675 52.5227 20.3959ZM42.5 19.2099C42.7045 19.0006 42.9773 18.7913 43.3182 18.6518C43.6591 18.5122 44 18.4425 44.3409 18.4425C44.75 18.4425 45.1591 18.5122 45.5 18.7215C45.8409 18.9308 46.1136 19.1401 46.3182 19.489L47.2727 18.8611C47.1364 18.6518 46.9318 18.4425 46.7273 18.2332C46.5227 18.0238 46.3182 17.8843 46.0455 17.7448C45.7727 17.6052 45.5 17.5355 45.2273 17.4657C44.9545 17.3959 44.6136 17.3959 44.2727 17.3959C43.7273 17.3959 43.25 17.4657 42.7727 17.675C41.8864 18.0238 41.1364 18.7215 40.7955 19.6983C40.4545 20.675 40.4545 21.7215 40.7955 22.6983C41.1364 23.6053 41.8864 24.3029 42.7727 24.7215C43.5227 25.0006 44.4091 25.0704 45.1591 24.9308C45.4318 24.8611 45.7045 24.7913 45.9773 24.6518C46.25 24.5122 46.4545 24.3727 46.6591 24.1634C46.8636 23.9541 47.0682 23.7448 47.2045 23.5355L46.25 22.8378C45.7727 23.5355 45.0227 23.8843 44.2727 23.8843C43.9318 23.8843 43.5909 23.8146 43.25 23.675C42.9773 23.5355 42.7045 23.396 42.4318 23.1169C42.2273 22.9076 42.0227 22.5587 41.8864 22.2797C41.6136 21.582 41.6136 20.8145 41.8864 20.1169C42.0909 19.768 42.2955 19.489 42.5 19.2099Z" fill="white"/>
<path fill-rule="evenodd" clip-rule="evenodd" d="M38.3406 10C38.136 9.7907 37.8633 9.5814 37.5906 9.44187C37.3178 9.30233 36.9769 9.23256 36.636 9.23256C36.2951 9.23256 35.9542 9.30233 35.6133 9.44187C35.2724 9.5814 34.9996 9.7907 34.7951 10C34.5906 10.2791 34.386 10.5581 34.2496 10.8372C34.1133 11.1861 34.0451 11.5349 34.0451 11.9535C34.0451 12.3023 34.1133 12.7209 34.2496 13.0698C34.386 13.4186 34.5224 13.6977 34.7951 13.907C34.9996 14.1163 35.3406 14.3256 35.6133 14.4651C35.9542 14.6047 36.2951 14.6744 36.7042 14.6744C37.0451 14.6744 37.4542 14.6047 37.7951 14.5349C38.136 14.3954 38.4769 14.2558 38.7496 13.9768L38.2042 13.2093C38.1019 13.2791 37.9826 13.3488 37.8633 13.4186C37.744 13.4884 37.6246 13.5582 37.5224 13.6279C37.2496 13.6977 36.9769 13.7675 36.7724 13.7675C36.5678 13.7675 36.4315 13.7675 36.2269 13.6977C36.1866 13.6667 36.1448 13.6358 36.1024 13.6044C35.8579 13.4235 35.5931 13.2275 35.4769 12.9302C35.3406 12.7907 35.2724 12.5814 35.2724 12.3721H39.0224V11.9535C39.0224 11.6047 38.9542 11.1861 38.8178 10.8372C38.7496 10.5581 38.6133 10.2093 38.3406 10ZM35.2724 11.5349C35.2724 11.3256 35.3406 11.1861 35.4087 11.0465C35.4769 10.907 35.5451 10.7674 35.6815 10.6279C35.8178 10.4884 35.9542 10.4186 36.0906 10.3488C36.2269 10.2791 36.4315 10.2791 36.636 10.2791C36.9769 10.2791 37.2496 10.4186 37.5224 10.6279C37.7269 10.907 37.9315 11.1861 37.9315 11.5349H35.2724Z" fill="white"/>
<path d="M32.6133 13.4884C32.4769 13.5582 32.2724 13.5582 32.0678 13.5582C31.9315 13.5582 31.8633 13.5582 31.7269 13.4884C31.6928 13.4535 31.6417 13.4361 31.5906 13.4186C31.5394 13.4012 31.4883 13.3837 31.4542 13.3488C31.4201 13.314 31.386 13.2616 31.3519 13.2093C31.3178 13.157 31.2837 13.1047 31.2496 13.0698C31.1815 12.9302 31.1815 12.7907 31.1815 12.6512V10.4186H33.2269V9.3721H31.2496V7.83721H30.1587V9.3721H29.136V10.4186H30.1587V12.6512C30.0906 13.2093 30.2951 13.7675 30.636 14.1861C30.9769 14.5349 31.4542 14.6744 31.9996 14.6744C32.2724 14.6744 32.6133 14.6047 32.886 14.5349C33.1587 14.4651 33.3633 14.3256 33.5678 14.1861L33.0906 13.2791C32.9542 13.3488 32.8178 13.4186 32.6133 13.4884Z" fill="white"/>
<path d="M45.5678 10.7674C45.7042 10.6279 45.8406 10.4884 46.0451 10.4186C46.2496 10.3488 46.4542 10.2791 46.6587 10.2791C46.8633 10.2791 47.136 10.3488 47.3406 10.4186C47.5451 10.4884 47.7496 10.6279 47.886 10.8372L48.5678 10.0698C48.3633 9.7907 48.0906 9.5814 47.7496 9.44187C47.4087 9.30233 47.0678 9.23256 46.6587 9.23256C46.3178 9.23256 45.9087 9.30233 45.5678 9.44187C44.9542 9.72094 44.4087 10.2093 44.2042 10.8372C43.9315 11.5349 43.9315 12.3023 44.2042 13C44.4769 13.6279 44.9542 14.1861 45.5678 14.3954C45.9087 14.5349 46.3178 14.6047 46.6587 14.6047C46.9996 14.6047 47.4087 14.5349 47.7496 14.3954C48.0906 14.2558 48.3633 14.0465 48.5678 13.7675L47.886 13C47.7496 13.1395 47.5451 13.2791 47.3406 13.4186C47.136 13.4884 46.8633 13.5582 46.6587 13.5582C46.4542 13.5582 46.2496 13.4884 46.0451 13.4186C45.8406 13.3488 45.7042 13.2093 45.5678 13.0698C45.4315 12.9302 45.2951 12.7209 45.2269 12.5814C45.0906 12.1628 45.0906 11.6744 45.2269 11.2558C45.2635 11.1997 45.2951 11.1487 45.3245 11.1013C45.4047 10.9717 45.468 10.8696 45.5678 10.7674Z" fill="white"/>
<path d="M14.7496 7L12.5678 12.3721L10.4542 7H8.61328V14.5349H9.84055V8.39535L12.0224 13.7675H13.3178L15.4996 8.32558V14.5349H16.7269V7H14.7496Z" fill="white"/>
<path fill-rule="evenodd" clip-rule="evenodd" d="M21.7724 10C21.5678 9.7907 21.3633 9.5814 21.0906 9.44187C20.8178 9.30233 20.4769 9.23256 20.136 9.23256C19.1133 9.23256 18.1587 9.86047 17.8178 10.8372C17.5451 11.5349 17.5451 12.3023 17.8178 13C17.9542 13.3488 18.0906 13.6279 18.3633 13.8372C18.8406 14.3256 19.5224 14.6047 20.136 14.6047C20.4769 14.6047 20.7496 14.5349 21.0906 14.3954C21.3633 14.2558 21.5678 14.0465 21.7724 13.8372V14.4651H22.8633V9.3721H21.7724V10ZM21.7724 12.5814C21.636 13 21.2951 13.2791 20.9542 13.4884C20.5451 13.6279 20.0678 13.6279 19.6587 13.4884C19.4542 13.4186 19.3178 13.2791 19.1815 13.1395C19.0451 13 18.9769 12.7907 18.9087 12.5814C18.7724 12.1628 18.7724 11.7442 18.9087 11.3256C19.0451 10.907 19.3178 10.6279 19.6587 10.4186C19.8633 10.3488 20.0678 10.2791 20.2724 10.2791C20.886 10.2791 21.4996 10.6279 21.7042 11.2558C21.9087 11.7442 21.9087 12.1628 21.7724 12.5814Z" fill="white"/>
<path d="M28.1133 11.9535C27.7042 11.6744 27.2951 11.5349 26.8178 11.4651C26.771 11.4591 26.7074 11.454 26.633 11.4479C26.1964 11.4123 25.386 11.3463 25.386 10.907C25.386 9.93963 27.4404 10.358 27.9087 10.8372L28.4542 9.7907C27.2953 8.90129 24.2269 8.87926 24.2269 10.907C24.2269 11.3256 24.3633 11.6744 24.636 11.8837C24.9769 12.1628 25.4542 12.3721 25.9315 12.3721L26.4769 12.4419C26.6815 12.4419 26.9542 12.5116 27.1587 12.6512C27.2951 12.7209 27.3633 12.8605 27.3633 13C27.3633 13.2093 27.2269 13.3488 27.0906 13.4884C26.4184 13.8323 25.1211 13.6359 24.5678 13.0698L24.0906 13.9768C24.1516 14.0184 24.2066 14.06 24.2591 14.0998C24.3826 14.1934 24.4925 14.2766 24.636 14.3256C24.9769 14.4651 25.386 14.6047 25.7951 14.6047H26.2724C26.6133 14.6047 26.9542 14.5349 27.2269 14.4651C27.4292 14.4134 27.594 14.3233 27.7768 14.2232C27.8406 14.1884 27.9065 14.1523 27.9769 14.1163C28.1815 13.9768 28.3178 13.8372 28.4542 13.6279C28.5906 13.4186 28.5906 13.2093 28.5906 12.9302C28.5906 12.5814 28.386 12.1628 28.1133 11.9535Z" fill="white"/>
<path d="M41.4087 9.93024V9.3721H40.3178V14.5349H41.4087V11.6744C41.4087 11.4651 41.4087 11.2558 41.4769 11.1163C41.8703 10.3112 42.7075 10.1761 43.4542 10.5581L43.7269 9.44187C43.0229 9.08169 41.7987 9.13209 41.4087 9.93024Z" fill="white"/>
<path fill-rule="evenodd" clip-rule="evenodd" d="M53.3406 10C53.136 9.7907 52.9315 9.5814 52.6587 9.44187C52.386 9.30233 52.0451 9.23256 51.7042 9.23256C50.6815 9.23256 49.7269 9.86047 49.386 10.8372C49.1133 11.5349 49.1133 12.3023 49.386 13C49.5224 13.3488 49.7269 13.6279 49.9315 13.8372C50.4087 14.3256 51.0905 14.6047 51.7042 14.6047C52.0451 14.6047 52.3178 14.5349 52.6587 14.3954C52.9315 14.2558 53.136 14.0465 53.3406 13.8372V14.4651H54.4315V9.3721H53.3406V10ZM53.3406 12.5814C53.2042 13 52.9315 13.2791 52.5224 13.4186C52.1133 13.5582 51.636 13.5582 51.2269 13.4186C51.0224 13.3488 50.886 13.2093 50.7496 13.0698C50.6133 12.9302 50.5451 12.7209 50.4769 12.5116C50.3405 12.093 50.3405 11.6744 50.4769 11.2558C50.6133 10.8372 50.886 10.5581 51.2269 10.3488C51.4315 10.2791 51.636 10.2093 51.8406 10.2093C52.4542 10.2093 53.0678 10.5581 53.2724 11.1861C53.4769 11.7442 53.4769 12.1628 53.3406 12.5814Z" fill="white"/>
<path d="M58.3176 9.21492C58.0448 9.21492 57.7039 9.28469 57.4312 9.35445C57.1585 9.49399 56.9539 9.63352 56.8176 9.9126V9.35445H55.7266V14.5173H56.8176V11.6568C56.8176 11.4475 56.8176 11.2382 56.8857 11.0986C56.9539 10.9591 57.0221 10.8196 57.1585 10.68C57.2948 10.5405 57.4312 10.4707 57.5676 10.401C57.7039 10.3312 57.9085 10.3312 58.0448 10.3312C58.1812 10.3312 58.3176 10.3312 58.4539 10.401C58.5903 10.401 58.7266 10.4707 58.863 10.5405L59.1357 9.42422C59.0676 9.38934 58.9994 9.3719 58.9312 9.35445C58.863 9.33701 58.7948 9.31957 58.7266 9.28469C58.5903 9.21492 58.4539 9.21492 58.3176 9.21492Z" fill="white"/>
<path fill-rule="evenodd" clip-rule="evenodd" d="M62.2721 9.3721C62.8858 9.30233 63.4994 9.5814 63.8403 10.0698V7H64.9312V14.4651H63.7721V13.8372C63.6358 14.1163 63.4312 14.2558 63.1585 14.3954C62.8858 14.5349 62.613 14.6047 62.2721 14.6047C61.6585 14.6047 61.0448 14.3256 60.5676 13.8372C60.333 13.6572 60.1994 13.3741 60.0798 13.1208C60.0603 13.0796 60.0412 13.0391 60.0221 13C59.7494 12.3023 59.7494 11.6047 60.0221 10.907C60.363 10 61.2494 9.3721 62.2721 9.3721ZM63.5969 12.9103C63.6597 12.8167 63.7293 12.7128 63.7721 12.5814C63.9085 12.2326 63.9085 11.7442 63.7721 11.3256C63.756 11.2926 63.7399 11.2558 63.7229 11.2169C63.6679 11.0911 63.6036 10.9438 63.4994 10.8372C63.363 10.6977 63.2267 10.5581 63.0221 10.4884C62.8176 10.4186 62.613 10.3488 62.4085 10.3488C62.2039 10.3488 61.9994 10.4186 61.7948 10.4884C61.4539 10.6279 61.1812 10.9768 61.0448 11.3256C60.9085 11.7442 60.9085 12.1628 61.0448 12.5814C61.1812 12.9302 61.4539 13.2791 61.7948 13.4186C62.2039 13.5582 62.613 13.5582 63.0221 13.4186C63.2267 13.3488 63.363 13.2093 63.4994 13.0698C63.5248 13.0178 63.5596 12.9659 63.5969 12.9103Z" fill="white"/>
</svg>
