<svg width="61" height="32" viewBox="0 0 61 32" fill="none" xmlns="http://www.w3.org/2000/svg">
<path d="M26.1867 18.6096L23.9339 24.2536L23.7142 23.0841C23.1647 21.6604 21.9559 20.1858 20.5273 19.6265L22.6153 26.8977H25.0328L28.6592 18.6096H26.1867ZM28.1098 26.8977L29.5383 18.6096H31.846L30.4175 26.8977H28.1098ZM41.846 23.9486C42.0109 23.4909 42.7801 21.6096 42.7801 21.6096C42.7801 21.6096 42.9449 21.1519 43.1098 20.796L43.2746 21.5079L43.824 23.8977H41.846V23.9486ZM44.6482 18.6096H42.89C42.3405 18.6096 41.901 18.7621 41.6812 19.3214L38.2746 26.8977H40.6922C40.6922 26.8977 41.0768 25.8808 41.1867 25.6265C41.4614 25.6265 43.824 25.6265 44.1537 25.6265C44.2087 25.9316 44.4284 26.8469 44.4284 26.8469H46.5713C46.5164 26.8977 44.6482 18.6096 44.6482 18.6096ZM38.7691 18.813C38.3295 18.6604 37.6153 18.457 36.6812 18.457C34.4284 18.457 32.7801 19.5757 32.7801 21.2028C32.7801 22.3723 33.9339 23.0841 34.8131 23.4401C35.6922 23.8469 36.0218 24.1011 36.0218 24.457C36.0218 25.0164 35.3076 25.2706 34.6482 25.2706C33.7142 25.2706 33.2197 25.1689 32.5054 24.813L32.1757 24.7113L31.846 26.5418C32.3955 26.796 33.3845 26.9486 34.4284 26.9994C36.846 26.9994 38.4394 25.8808 38.4394 24.1519C38.4394 23.1858 37.835 22.474 36.5164 21.9147C35.6922 21.5079 35.1977 21.2536 35.2526 20.8977C35.2526 20.5418 35.6922 20.1858 36.5713 20.1858C37.1757 20.1858 37.7801 20.2875 38.2746 20.4909L38.4944 20.5926C38.4394 20.5926 38.7691 18.813 38.7691 18.813Z" fill="white"/>
<path d="M21.8456 18.6094H18.1094V18.7619C21.0215 19.4738 22.8896 21.1517 23.7138 23.1348L22.8896 19.3212C22.7248 18.7619 22.3401 18.6094 21.8456 18.6094Z" fill="white"/>
<path d="M11.1868 16.6271H9.7033L8 9.50847L9.64835 9.25424L10.8022 14.7966L13.7692 9.30508H15.3077L11.1868 16.6271ZM50.7473 16.7797C50.1978 17.7458 49.7033 18 48.9341 18C48.7692 18 48.6593 18 48.5494 17.9492V17.1864C48.6593 17.2373 48.8242 17.2373 49.044 17.2373C49.3187 17.2373 49.5934 17.0847 49.7582 16.8305L49.8681 16.5763L48.989 12.8136L50.0879 12.661L50.5824 15.4068L51.956 12.7627H53L50.7473 16.7797ZM46.6813 13.5254C46.3516 13.5254 46.022 13.7288 45.6923 14.0339L45.3626 15.7627C45.5824 15.8136 45.6923 15.8644 46.022 15.8644C46.6813 15.8644 47.1209 15.5085 47.2857 14.6441C47.3956 13.8814 47.1209 13.5254 46.6813 13.5254ZM45.9121 16.6271C45.3626 16.6271 44.8132 16.5254 44.2637 16.3729L45.1429 10.9831L46.1868 10.8305L45.8022 13.1695C46.1319 12.9153 46.5165 12.661 47.0659 12.661C47.9451 12.661 48.5494 13.2712 48.3297 14.5424C48.0549 15.9661 47.1209 16.6271 45.9121 16.6271ZM41.022 12.661C40.6923 12.5085 40.4725 12.4576 39.978 12.4576C39.2637 12.4576 38.6593 13.0169 38.4945 14.0847C38.3297 15.0508 38.7143 15.5085 39.3187 15.5085C39.8132 15.5085 40.2527 15.2542 40.6923 14.7966L41.022 12.661ZM40.5824 16.5763V15.8644C40.1429 16.2712 39.5385 16.678 38.7692 16.678C37.6154 16.678 36.8462 15.9153 37.1209 14.1864C37.4505 12.3051 38.7143 11.4407 39.978 11.4407C40.4725 11.4407 40.9121 11.5424 41.1868 11.6441L41.5714 9.20339L43 9L41.7363 16.5763H40.5824ZM34.5385 12.2542C33.989 12.2542 33.4945 12.661 33.2747 13.4746H35.4176C35.4176 12.7119 35.1429 12.2542 34.5385 12.2542ZM36.5714 14.2881H33.0549C32.9451 15.2542 33.4396 15.7119 34.2637 15.7119C34.978 15.7119 35.5824 15.4576 36.2418 15.1017V16.0678C35.5824 16.4237 34.8132 16.678 33.9341 16.678C32.3956 16.678 31.4066 15.8644 31.6813 14.0339C31.956 12.4068 33.1648 11.3898 34.5934 11.3898C36.2418 11.3898 36.7912 12.5593 36.5165 13.983C36.6264 14.0847 36.5714 14.2373 36.5714 14.2881ZM30.8022 10.678C30.3626 10.678 30.033 10.3729 30.0879 9.9661C30.1429 9.55932 30.5824 9.25424 31.022 9.25424C31.4615 9.25424 31.7912 9.55932 31.6813 9.9661C31.6264 10.3729 31.2418 10.678 30.8022 10.678ZM29.0989 16.5763L29.9231 11.4915H31.2967L30.4725 16.5763H29.0989ZM29.0989 10.1186C28.6593 10.1186 28.3297 10.322 28.2747 10.7797L28.1648 11.5424H29.2088V12.5593H28L27.3407 16.5763H26.022L26.6813 12.5593H25.9121L26.0769 11.5424H26.8462L27.011 10.678C27.1758 9.55932 28.0549 9.15254 29.1538 9.15254C29.3736 9.15254 29.5934 9.15254 29.7033 9.20339V10.2203C29.4835 10.1186 29.3187 10.1186 29.0989 10.1186ZM24.8132 10.678C24.3736 10.678 24.044 10.3729 24.0989 9.9661C24.1538 9.55932 24.5934 9.25424 25.033 9.25424C25.4725 9.25424 25.8022 9.55932 25.6923 9.9661C25.6923 10.3729 25.2527 10.678 24.8132 10.678ZM23.1648 16.5763L23.989 11.4915H25.3626L24.5385 16.5763H23.1648ZM21.0769 13.678L20.5824 16.5763H19.2088L20.033 11.4915H21.1868V12.5085C21.6264 11.8983 22.2857 11.4407 23.1099 11.3898V12.661C22.3407 12.7119 21.5714 13.1186 21.0769 13.678ZM16.7363 12.2542C16.1868 12.2542 15.6923 12.661 15.4725 13.4746H17.6154C17.6703 12.7119 17.3956 12.2542 16.7363 12.2542ZM18.8242 14.2881H15.3077C15.1978 15.2542 15.6923 15.7119 16.5165 15.7119C17.2308 15.7119 17.8352 15.4576 18.4945 15.1017V16.0678C17.8352 16.4237 17.1209 16.678 16.1868 16.678C14.6484 16.678 13.6593 15.8644 13.9341 14.0339C14.2088 12.4068 15.4176 11.3898 16.8462 11.3898C18.4945 11.3898 19.044 12.5593 18.7692 13.983C18.8242 14.0847 18.8242 14.2373 18.8242 14.2881Z" fill="white"/>
</svg>
